<svg width="216" height="76" viewBox="0 0 216 76" fill="none" xmlns="http://www.w3.org/2000/svg">
<g clip-path="url(#clip0)">
<path d="M210.197 25.4015V73.769H199.625V25.4015H210.197Z" fill="#FFB527"/>
<path d="M139.136 25.4015V73.8882H128.525V69.1587C124.312 72.9741 119.026 75.16 112.747 75.16C100.148 75.16 91.7227 66.178 91.7227 52.2679V25.4015H102.334V51.5923C102.334 60.455 107.183 65.4229 114.933 65.4229C119.662 65.4229 124.63 62.7601 128.565 57.7922V25.4015H139.136Z" fill="#3C3C3B"/>
<path d="M23.8018 66.3369C30.0813 66.3369 34.4133 64.2702 34.4133 60.4549C34.4133 57.5536 32.0287 55.487 27.9351 54.7716L17.2045 52.9037C9.7725 51.6716 2.85719 47.9358 2.85719 39.1923C2.85719 29.8129 11.0045 24.0501 23.0865 24.0501C32.4659 24.0501 43.3158 27.2296 44.3491 39.9474H34.4133C33.8966 34.7013 29.2467 32.6346 23.0865 32.6346C16.8865 32.6346 13.5084 34.9 13.5084 38.3179C13.5084 40.9012 15.3763 43.3653 21.0198 44.3191L30.0813 45.7499C37.394 47.1012 44.6273 50.2806 44.6273 59.66C44.6273 69.874 35.6453 75.1201 23.4839 75.1201C12.0379 75.1201 2.2213 70.5894 0.989258 57.7921L10.8853 57.9113C12.0379 63.8728 16.4494 66.3369 23.8018 66.3369Z" fill="#3C3C3B"/>
<path d="M87.4707 73.133C83.2579 74.6829 79.7208 75.0804 76.4221 75.0804C64.062 75.0804 57.4646 67.6484 57.4646 55.169V34.3834H46.0186V25.4014H57.4646V7.5567H68.1953V25.4014H86.1592V34.3834H68.1953V55.2088C68.1953 62.2036 71.6927 65.2241 77.6939 65.2241C80.5951 65.2241 83.4566 64.3895 85.9605 63.3561L87.4707 73.133Z" fill="#3C3C3B"/>
<path d="M215.721 0.641418L199.625 6.16572L210.197 16.7772L215.721 0.641418Z" fill="#FFB527"/>
<path d="M194.061 0.641418V73.8484H183.41V69.9138C179.277 73.2125 174.031 75.0804 167.831 75.0804C154.199 75.0804 143.27 63.7536 143.27 49.4858C143.27 35.4565 154.199 24.1296 167.831 24.1296C174.031 24.1296 179.277 25.9976 183.41 29.177V0.641418H194.061ZM183.41 58.3088V40.8615C179.794 35.6949 174.746 33.8667 169.381 33.8667C160.518 33.8667 154 40.9808 154 49.5255C154 58.1896 160.478 65.4228 169.381 65.4228C174.746 65.4228 179.794 63.5549 183.41 58.3088Z" fill="#FFB527"/>
</g>
<defs>
<clipPath id="clip0">
<rect width="215.011" height="74.7172" fill="white" transform="translate(0.989258 0.641418)"/>
</clipPath>
</defs>
</svg>
